<mxfile host="app.diagrams.net" modified="2022-01-07T09:26:44.668Z" agent="5.0 (Windows NT 10.0; Win64; x64) AppleWebKit/537.36 (KHTML, like Gecko) Chrome/96.0.4664.110 Safari/537.36" etag="7izb3TQkiyEbxGlhCxgC" version="15.7.3" type="github">
  <diagram id="CmQI9pLWm5A8pcVRX-Uq" name="第 1 页">
    <mxGraphModel dx="2308" dy="1252" grid="1" gridSize="10" guides="1" tooltips="1" connect="1" arrows="1" fold="1" page="1" pageScale="1" pageWidth="1600" pageHeight="1200" math="0" shadow="0">
      <root>
        <mxCell id="0" />
        <mxCell id="1" parent="0" />
        <mxCell id="4g5Lp8dIHSpws6vJ9VM9-4" value="" style="edgeStyle=orthogonalEdgeStyle;rounded=0;orthogonalLoop=1;jettySize=auto;html=1;" edge="1" parent="1" source="4g5Lp8dIHSpws6vJ9VM9-2" target="4g5Lp8dIHSpws6vJ9VM9-3">
          <mxGeometry relative="1" as="geometry" />
        </mxCell>
        <mxCell id="4g5Lp8dIHSpws6vJ9VM9-2" value="新建zabbix模型字段" style="rounded=1;whiteSpace=wrap;html=1;" vertex="1" parent="1">
          <mxGeometry x="280" y="230" width="120" height="60" as="geometry" />
        </mxCell>
        <mxCell id="4g5Lp8dIHSpws6vJ9VM9-6" value="" style="edgeStyle=orthogonalEdgeStyle;rounded=0;orthogonalLoop=1;jettySize=auto;html=1;" edge="1" parent="1" source="4g5Lp8dIHSpws6vJ9VM9-3" target="4g5Lp8dIHSpws6vJ9VM9-5">
          <mxGeometry relative="1" as="geometry" />
        </mxCell>
        <mxCell id="4g5Lp8dIHSpws6vJ9VM9-8" value="" style="edgeStyle=orthogonalEdgeStyle;rounded=0;orthogonalLoop=1;jettySize=auto;html=1;" edge="1" parent="1" source="4g5Lp8dIHSpws6vJ9VM9-3" target="4g5Lp8dIHSpws6vJ9VM9-7">
          <mxGeometry relative="1" as="geometry" />
        </mxCell>
        <mxCell id="4g5Lp8dIHSpws6vJ9VM9-3" value="编辑模型映射关系" style="whiteSpace=wrap;html=1;rounded=1;" vertex="1" parent="1">
          <mxGeometry x="280" y="370" width="120" height="60" as="geometry" />
        </mxCell>
        <mxCell id="4g5Lp8dIHSpws6vJ9VM9-12" value="" style="edgeStyle=orthogonalEdgeStyle;rounded=0;orthogonalLoop=1;jettySize=auto;html=1;" edge="1" parent="1" source="4g5Lp8dIHSpws6vJ9VM9-5" target="4g5Lp8dIHSpws6vJ9VM9-11">
          <mxGeometry relative="1" as="geometry" />
        </mxCell>
        <mxCell id="4g5Lp8dIHSpws6vJ9VM9-28" style="edgeStyle=orthogonalEdgeStyle;rounded=0;orthogonalLoop=1;jettySize=auto;html=1;" edge="1" parent="1" source="4g5Lp8dIHSpws6vJ9VM9-5" target="4g5Lp8dIHSpws6vJ9VM9-13">
          <mxGeometry relative="1" as="geometry" />
        </mxCell>
        <mxCell id="4g5Lp8dIHSpws6vJ9VM9-5" value="&lt;span style=&quot;color: rgb(50 , 50 , 50) ; font-size: 13px ; background-color: rgba(255 , 255 , 255 , 0.01)&quot;&gt;编辑需要的收敛指标字段&lt;/span&gt;" style="whiteSpace=wrap;html=1;rounded=1;" vertex="1" parent="1">
          <mxGeometry x="280" y="520" width="120" height="60" as="geometry" />
        </mxCell>
        <mxCell id="4g5Lp8dIHSpws6vJ9VM9-10" value="" style="edgeStyle=orthogonalEdgeStyle;rounded=0;orthogonalLoop=1;jettySize=auto;html=1;" edge="1" parent="1" source="4g5Lp8dIHSpws6vJ9VM9-7" target="4g5Lp8dIHSpws6vJ9VM9-9">
          <mxGeometry relative="1" as="geometry" />
        </mxCell>
        <mxCell id="4g5Lp8dIHSpws6vJ9VM9-7" value="&lt;span style=&quot;color: rgb(50 , 50 , 50) ; font-size: 13px ; background-color: rgba(255 , 255 , 255 , 0.01)&quot;&gt;扩展模型字段的映射关系&lt;/span&gt;" style="whiteSpace=wrap;html=1;rounded=1;" vertex="1" parent="1">
          <mxGeometry x="480" y="370" width="120" height="60" as="geometry" />
        </mxCell>
        <mxCell id="4g5Lp8dIHSpws6vJ9VM9-38" value="" style="edgeStyle=orthogonalEdgeStyle;rounded=0;orthogonalLoop=1;jettySize=auto;html=1;" edge="1" parent="1" source="4g5Lp8dIHSpws6vJ9VM9-9" target="4g5Lp8dIHSpws6vJ9VM9-34">
          <mxGeometry relative="1" as="geometry" />
        </mxCell>
        <mxCell id="4g5Lp8dIHSpws6vJ9VM9-9" value="&lt;span style=&quot;color: rgb(50 , 50 , 50) ; font-size: 13px ; background-color: rgba(255 , 255 , 255 , 0.01)&quot;&gt;模型字段存入mysql&lt;/span&gt;" style="whiteSpace=wrap;html=1;rounded=1;" vertex="1" parent="1">
          <mxGeometry x="770" y="370" width="120" height="60" as="geometry" />
        </mxCell>
        <mxCell id="4g5Lp8dIHSpws6vJ9VM9-17" style="edgeStyle=orthogonalEdgeStyle;rounded=0;orthogonalLoop=1;jettySize=auto;html=1;entryX=0;entryY=0.5;entryDx=0;entryDy=0;" edge="1" parent="1" source="4g5Lp8dIHSpws6vJ9VM9-11" target="4g5Lp8dIHSpws6vJ9VM9-13">
          <mxGeometry relative="1" as="geometry" />
        </mxCell>
        <mxCell id="4g5Lp8dIHSpws6vJ9VM9-25" value="" style="edgeStyle=orthogonalEdgeStyle;rounded=0;orthogonalLoop=1;jettySize=auto;html=1;" edge="1" parent="1" source="4g5Lp8dIHSpws6vJ9VM9-11" target="4g5Lp8dIHSpws6vJ9VM9-24">
          <mxGeometry relative="1" as="geometry" />
        </mxCell>
        <mxCell id="4g5Lp8dIHSpws6vJ9VM9-11" value="&lt;span style=&quot;color: rgb(50 , 50 , 50) ; font-family: &amp;#34;helvetica&amp;#34; ; font-size: 13px ; font-style: normal ; font-weight: 400 ; letter-spacing: normal ; text-align: center ; text-indent: 0px ; text-transform: none ; word-spacing: 0px ; background-color: rgba(255 , 255 , 255 , 0.01) ; display: inline ; float: none&quot;&gt;编辑需要的通知&lt;br&gt;指标字段&lt;/span&gt;" style="whiteSpace=wrap;html=1;rounded=1;" vertex="1" parent="1">
          <mxGeometry x="280" y="650" width="120" height="60" as="geometry" />
        </mxCell>
        <mxCell id="4g5Lp8dIHSpws6vJ9VM9-19" value="" style="edgeStyle=orthogonalEdgeStyle;rounded=0;orthogonalLoop=1;jettySize=auto;html=1;" edge="1" parent="1" source="4g5Lp8dIHSpws6vJ9VM9-13" target="4g5Lp8dIHSpws6vJ9VM9-18">
          <mxGeometry relative="1" as="geometry" />
        </mxCell>
        <mxCell id="4g5Lp8dIHSpws6vJ9VM9-13" value="指标字段通过前端页面合并未规则脚本" style="whiteSpace=wrap;html=1;rounded=1;" vertex="1" parent="1">
          <mxGeometry x="470" y="650" width="120" height="60" as="geometry" />
        </mxCell>
        <mxCell id="4g5Lp8dIHSpws6vJ9VM9-45" style="edgeStyle=orthogonalEdgeStyle;rounded=0;orthogonalLoop=1;jettySize=auto;html=1;entryX=0.5;entryY=0;entryDx=0;entryDy=0;" edge="1" parent="1" source="4g5Lp8dIHSpws6vJ9VM9-18" target="4g5Lp8dIHSpws6vJ9VM9-43">
          <mxGeometry relative="1" as="geometry" />
        </mxCell>
        <mxCell id="4g5Lp8dIHSpws6vJ9VM9-18" value="规则脚本存入mysql" style="whiteSpace=wrap;html=1;rounded=1;" vertex="1" parent="1">
          <mxGeometry x="620" y="570" width="120" height="60" as="geometry" />
        </mxCell>
        <mxCell id="4g5Lp8dIHSpws6vJ9VM9-30" value="" style="edgeStyle=orthogonalEdgeStyle;rounded=0;orthogonalLoop=1;jettySize=auto;html=1;" edge="1" parent="1" source="4g5Lp8dIHSpws6vJ9VM9-22" target="4g5Lp8dIHSpws6vJ9VM9-29">
          <mxGeometry relative="1" as="geometry" />
        </mxCell>
        <mxCell id="4g5Lp8dIHSpws6vJ9VM9-22" value="设置生效的策略（收敛、通知规则）的阈值" style="whiteSpace=wrap;html=1;rounded=1;" vertex="1" parent="1">
          <mxGeometry x="280" y="880" width="120" height="60" as="geometry" />
        </mxCell>
        <mxCell id="4g5Lp8dIHSpws6vJ9VM9-26" style="edgeStyle=orthogonalEdgeStyle;rounded=0;orthogonalLoop=1;jettySize=auto;html=1;entryX=0.5;entryY=0;entryDx=0;entryDy=0;" edge="1" parent="1" source="4g5Lp8dIHSpws6vJ9VM9-24" target="4g5Lp8dIHSpws6vJ9VM9-22">
          <mxGeometry relative="1" as="geometry" />
        </mxCell>
        <mxCell id="4g5Lp8dIHSpws6vJ9VM9-27" style="edgeStyle=orthogonalEdgeStyle;rounded=0;orthogonalLoop=1;jettySize=auto;html=1;entryX=0;entryY=0.5;entryDx=0;entryDy=0;" edge="1" parent="1" source="4g5Lp8dIHSpws6vJ9VM9-24" target="4g5Lp8dIHSpws6vJ9VM9-13">
          <mxGeometry relative="1" as="geometry" />
        </mxCell>
        <mxCell id="4g5Lp8dIHSpws6vJ9VM9-24" value="&lt;span style=&quot;color: rgb(50 , 50 , 50) ; font-family: &amp;#34;helvetica&amp;#34; ; font-size: 13px ; background-color: rgba(255 , 255 , 255 , 0.01)&quot;&gt;编辑需要的监控处理方式&lt;/span&gt;&lt;span style=&quot;color: rgb(50 , 50 , 50) ; font-family: &amp;#34;helvetica&amp;#34; ; font-size: 13px ; background-color: rgba(255 , 255 , 255 , 0.01)&quot;&gt;字段&lt;/span&gt;" style="whiteSpace=wrap;html=1;rounded=1;" vertex="1" parent="1">
          <mxGeometry x="280" y="760" width="120" height="60" as="geometry" />
        </mxCell>
        <mxCell id="4g5Lp8dIHSpws6vJ9VM9-32" value="" style="edgeStyle=orthogonalEdgeStyle;rounded=0;orthogonalLoop=1;jettySize=auto;html=1;" edge="1" parent="1" source="4g5Lp8dIHSpws6vJ9VM9-29" target="4g5Lp8dIHSpws6vJ9VM9-31">
          <mxGeometry relative="1" as="geometry" />
        </mxCell>
        <mxCell id="4g5Lp8dIHSpws6vJ9VM9-29" value="生效策略信息存入redis" style="whiteSpace=wrap;html=1;rounded=1;" vertex="1" parent="1">
          <mxGeometry x="480" y="880" width="120" height="60" as="geometry" />
        </mxCell>
        <mxCell id="4g5Lp8dIHSpws6vJ9VM9-44" value="" style="edgeStyle=orthogonalEdgeStyle;rounded=0;orthogonalLoop=1;jettySize=auto;html=1;" edge="1" parent="1" source="4g5Lp8dIHSpws6vJ9VM9-31" target="4g5Lp8dIHSpws6vJ9VM9-43">
          <mxGeometry relative="1" as="geometry" />
        </mxCell>
        <mxCell id="4g5Lp8dIHSpws6vJ9VM9-31" value="&lt;span&gt;生效策略信息存入mysql&lt;/span&gt;" style="whiteSpace=wrap;html=1;rounded=1;" vertex="1" parent="1">
          <mxGeometry x="660" y="880" width="120" height="60" as="geometry" />
        </mxCell>
        <mxCell id="4g5Lp8dIHSpws6vJ9VM9-35" value="" style="edgeStyle=orthogonalEdgeStyle;rounded=0;orthogonalLoop=1;jettySize=auto;html=1;" edge="1" parent="1" source="4g5Lp8dIHSpws6vJ9VM9-33" target="4g5Lp8dIHSpws6vJ9VM9-34">
          <mxGeometry relative="1" as="geometry" />
        </mxCell>
        <mxCell id="4g5Lp8dIHSpws6vJ9VM9-37" value="" style="edgeStyle=orthogonalEdgeStyle;rounded=0;orthogonalLoop=1;jettySize=auto;html=1;" edge="1" parent="1" source="4g5Lp8dIHSpws6vJ9VM9-33" target="4g5Lp8dIHSpws6vJ9VM9-36">
          <mxGeometry relative="1" as="geometry" />
        </mxCell>
        <mxCell id="4g5Lp8dIHSpws6vJ9VM9-33" value="KAFKA接入" style="rounded=0;whiteSpace=wrap;html=1;" vertex="1" parent="1">
          <mxGeometry x="950" y="230" width="120" height="60" as="geometry" />
        </mxCell>
        <mxCell id="4g5Lp8dIHSpws6vJ9VM9-40" value="" style="edgeStyle=orthogonalEdgeStyle;rounded=0;orthogonalLoop=1;jettySize=auto;html=1;" edge="1" parent="1" source="4g5Lp8dIHSpws6vJ9VM9-34" target="4g5Lp8dIHSpws6vJ9VM9-39">
          <mxGeometry relative="1" as="geometry" />
        </mxCell>
        <mxCell id="4g5Lp8dIHSpws6vJ9VM9-42" value="" style="edgeStyle=orthogonalEdgeStyle;rounded=0;orthogonalLoop=1;jettySize=auto;html=1;" edge="1" parent="1" source="4g5Lp8dIHSpws6vJ9VM9-34" target="4g5Lp8dIHSpws6vJ9VM9-41">
          <mxGeometry relative="1" as="geometry" />
        </mxCell>
        <mxCell id="4g5Lp8dIHSpws6vJ9VM9-34" value="&lt;span style=&quot;color: rgb(50 , 50 , 50) ; font-size: 13px ; background-color: rgba(255 , 255 , 255 , 0.01)&quot;&gt;获取字段映射，字段扩展关系&lt;/span&gt;" style="whiteSpace=wrap;html=1;rounded=0;" vertex="1" parent="1">
          <mxGeometry x="950" y="370" width="120" height="60" as="geometry" />
        </mxCell>
        <mxCell id="4g5Lp8dIHSpws6vJ9VM9-36" value="告警异步落库" style="whiteSpace=wrap;html=1;rounded=0;" vertex="1" parent="1">
          <mxGeometry x="1150" y="230" width="120" height="60" as="geometry" />
        </mxCell>
        <mxCell id="4g5Lp8dIHSpws6vJ9VM9-39" value="映射后信息保存" style="whiteSpace=wrap;html=1;rounded=0;" vertex="1" parent="1">
          <mxGeometry x="1150" y="370" width="120" height="60" as="geometry" />
        </mxCell>
        <mxCell id="4g5Lp8dIHSpws6vJ9VM9-48" value="" style="edgeStyle=orthogonalEdgeStyle;rounded=0;orthogonalLoop=1;jettySize=auto;html=1;" edge="1" parent="1" source="4g5Lp8dIHSpws6vJ9VM9-41" target="4g5Lp8dIHSpws6vJ9VM9-47">
          <mxGeometry relative="1" as="geometry" />
        </mxCell>
        <mxCell id="4g5Lp8dIHSpws6vJ9VM9-41" value="获取对应的指标字段和逻辑关系" style="whiteSpace=wrap;html=1;rounded=0;" vertex="1" parent="1">
          <mxGeometry x="950" y="470" width="120" height="60" as="geometry" />
        </mxCell>
        <mxCell id="4g5Lp8dIHSpws6vJ9VM9-46" style="edgeStyle=orthogonalEdgeStyle;rounded=0;orthogonalLoop=1;jettySize=auto;html=1;entryX=0;entryY=0.5;entryDx=0;entryDy=0;" edge="1" parent="1" source="4g5Lp8dIHSpws6vJ9VM9-43" target="4g5Lp8dIHSpws6vJ9VM9-41">
          <mxGeometry relative="1" as="geometry" />
        </mxCell>
        <mxCell id="4g5Lp8dIHSpws6vJ9VM9-43" value="&lt;span style=&quot;color: rgb(50 , 50 , 50) ; font-size: 13px ; background-color: rgba(255 , 255 , 255 , 0.01)&quot;&gt;逻辑关系编译后存入map中&lt;/span&gt;" style="whiteSpace=wrap;html=1;rounded=1;" vertex="1" parent="1">
          <mxGeometry x="660" y="740" width="120" height="60" as="geometry" />
        </mxCell>
        <mxCell id="4g5Lp8dIHSpws6vJ9VM9-50" value="" style="edgeStyle=orthogonalEdgeStyle;rounded=0;orthogonalLoop=1;jettySize=auto;html=1;" edge="1" parent="1" source="4g5Lp8dIHSpws6vJ9VM9-47" target="4g5Lp8dIHSpws6vJ9VM9-49">
          <mxGeometry relative="1" as="geometry" />
        </mxCell>
        <mxCell id="4g5Lp8dIHSpws6vJ9VM9-47" value="收敛规则生效" style="whiteSpace=wrap;html=1;rounded=0;" vertex="1" parent="1">
          <mxGeometry x="950" y="550" width="120" height="60" as="geometry" />
        </mxCell>
        <mxCell id="4g5Lp8dIHSpws6vJ9VM9-58" style="edgeStyle=orthogonalEdgeStyle;rounded=0;orthogonalLoop=1;jettySize=auto;html=1;entryX=0.5;entryY=0;entryDx=0;entryDy=0;" edge="1" parent="1" source="4g5Lp8dIHSpws6vJ9VM9-49" target="4g5Lp8dIHSpws6vJ9VM9-55">
          <mxGeometry relative="1" as="geometry" />
        </mxCell>
        <mxCell id="4g5Lp8dIHSpws6vJ9VM9-49" value="通知规则生效" style="whiteSpace=wrap;html=1;rounded=0;" vertex="1" parent="1">
          <mxGeometry x="950" y="640" width="120" height="60" as="geometry" />
        </mxCell>
        <mxCell id="4g5Lp8dIHSpws6vJ9VM9-61" value="" style="edgeStyle=orthogonalEdgeStyle;rounded=0;orthogonalLoop=1;jettySize=auto;html=1;" edge="1" parent="1" source="4g5Lp8dIHSpws6vJ9VM9-51" target="4g5Lp8dIHSpws6vJ9VM9-60">
          <mxGeometry relative="1" as="geometry" />
        </mxCell>
        <mxCell id="4g5Lp8dIHSpws6vJ9VM9-63" value="" style="edgeStyle=orthogonalEdgeStyle;rounded=0;orthogonalLoop=1;jettySize=auto;html=1;" edge="1" parent="1" source="4g5Lp8dIHSpws6vJ9VM9-51" target="4g5Lp8dIHSpws6vJ9VM9-62">
          <mxGeometry relative="1" as="geometry" />
        </mxCell>
        <mxCell id="4g5Lp8dIHSpws6vJ9VM9-51" value="监控处理规则生效" style="whiteSpace=wrap;html=1;rounded=0;" vertex="1" parent="1">
          <mxGeometry x="950" y="830" width="120" height="60" as="geometry" />
        </mxCell>
        <mxCell id="4g5Lp8dIHSpws6vJ9VM9-54" style="edgeStyle=orthogonalEdgeStyle;rounded=0;orthogonalLoop=1;jettySize=auto;html=1;entryX=1;entryY=0.5;entryDx=0;entryDy=0;" edge="1" parent="1" source="4g5Lp8dIHSpws6vJ9VM9-53" target="4g5Lp8dIHSpws6vJ9VM9-51">
          <mxGeometry relative="1" as="geometry" />
        </mxCell>
        <mxCell id="4g5Lp8dIHSpws6vJ9VM9-53" value="job定时扫描" style="rounded=0;whiteSpace=wrap;html=1;" vertex="1" parent="1">
          <mxGeometry x="1150" y="830" width="120" height="60" as="geometry" />
        </mxCell>
        <mxCell id="4g5Lp8dIHSpws6vJ9VM9-59" style="edgeStyle=orthogonalEdgeStyle;rounded=0;orthogonalLoop=1;jettySize=auto;html=1;entryX=0.5;entryY=0;entryDx=0;entryDy=0;" edge="1" parent="1" source="4g5Lp8dIHSpws6vJ9VM9-55" target="4g5Lp8dIHSpws6vJ9VM9-51">
          <mxGeometry relative="1" as="geometry" />
        </mxCell>
        <mxCell id="4g5Lp8dIHSpws6vJ9VM9-55" value="联动CMDB推送" style="whiteSpace=wrap;html=1;rounded=0;" vertex="1" parent="1">
          <mxGeometry x="950" y="730" width="120" height="60" as="geometry" />
        </mxCell>
        <mxCell id="4g5Lp8dIHSpws6vJ9VM9-57" style="edgeStyle=orthogonalEdgeStyle;rounded=0;orthogonalLoop=1;jettySize=auto;html=1;exitX=0.5;exitY=1;exitDx=0;exitDy=0;" edge="1" parent="1" source="4g5Lp8dIHSpws6vJ9VM9-49" target="4g5Lp8dIHSpws6vJ9VM9-49">
          <mxGeometry relative="1" as="geometry" />
        </mxCell>
        <mxCell id="4g5Lp8dIHSpws6vJ9VM9-60" value="告警结束" style="whiteSpace=wrap;html=1;rounded=0;" vertex="1" parent="1">
          <mxGeometry x="790" y="830" width="120" height="60" as="geometry" />
        </mxCell>
        <mxCell id="4g5Lp8dIHSpws6vJ9VM9-62" value="触发升级规则" style="whiteSpace=wrap;html=1;rounded=0;" vertex="1" parent="1">
          <mxGeometry x="950" y="920" width="120" height="60" as="geometry" />
        </mxCell>
      </root>
    </mxGraphModel>
  </diagram>
</mxfile>
